<svg width="29" height="28" viewBox="0 0 29 28" fill="none" xmlns="http://www.w3.org/2000/svg">
<path d="M24.7226 3.78736C21.9875 1.34494 18.3572 0 14.5 0C10.6428 0 7.01246 1.34494 4.27743 3.78736C1.51903 6.25073 0 9.53266 0 13.0289C0 15.6479 0.854742 18.1589 2.47555 20.3139L1.22981 28L9.11047 25.1276C10.8246 25.745 12.636 26.0579 14.5 26.0579C18.3572 26.0579 21.9875 24.7128 24.7226 22.2704C27.481 19.807 29 16.5251 29 13.0289C29 9.53266 27.481 6.25073 24.7226 3.78736ZM15.7709 16.7708L12.5655 14.2965L4.89853 17.2904L13.6713 8.68109L16.9154 11.237L23.9331 8.55238L15.7709 16.7708Z" fill="#4CD1F3"/>
</svg>
