<svg width="27" height="41" viewBox="0 0 27 41" fill="none" xmlns="http://www.w3.org/2000/svg">
<g clip-path="url(#clip0)">
<path d="M24.4476 20.2728L19.3361 15.1614C19.2179 15.0431 19.0601 14.9779 18.8918 14.9779C18.7235 14.9779 18.5657 15.0431 18.4475 15.1614L18.0711 15.5377C17.8261 15.783 17.8261 16.1815 18.0711 16.4264L22.3633 20.7186L18.0663 25.0156C17.9481 25.1339 17.8828 25.2917 17.8828 25.4599C17.8828 25.6282 17.9481 25.7859 18.0663 25.9044L18.4427 26.2806C18.5611 26.3989 18.7188 26.4641 18.8871 26.4641C19.0553 26.4641 19.2131 26.3989 19.3314 26.2806L24.4476 21.1645C24.5661 21.0458 24.6312 20.8874 24.6308 20.7189C24.6312 20.5498 24.5661 20.3914 24.4476 20.2728Z" fill="url(#paint0_linear)"/>
</g>
<path d="M1.15527 0.620239V40.4117" stroke="#FDC5C0"/>
<defs>
<linearGradient id="paint0_linear" x1="21.2568" y1="14.9779" x2="21.2568" y2="26.4641" gradientUnits="userSpaceOnUse">
<stop stop-color="#FDC0BB"/>
<stop offset="1" stop-color="#E287B4"/>
</linearGradient>
<clipPath id="clip0">
<rect width="11.4862" height="11.4862" fill="white" transform="translate(15.5137 14.9779)"/>
</clipPath>
</defs>
</svg>
